/* XPM */
static char *_e8a0915853d4bd8f50890db6b9bec974r5M8u4DhiJ3oPKF[] = {
/* columns rows colors chars-per-pixel */
"64 64 43 1 ",
"  c None",
". c black",
"X c #000100",
"o c #000201",
"O c #001D0C",
"+ c #002711",
"@ c #003617",
"# c #00491F",
"$ c #004B20",
"% c #005926",
"& c #005F28",
"* c #006029",
"= c #006129",
"- c #00632A",
"; c #00652B",
": c #00662C",
"> c #00692D",
", c #007632",
"< c #007E36",
"1 c #008037",
"2 c #018138",
"3 c #028138",
"4 c #028139",
"5 c #08823D",
"6 c #09853F",
"7 c #0A8540",
"8 c #0B8640",
"9 c #0E8741",
"0 c #0F8642",
"q c #108743",
"w c #108843",
"e c #118844",
"r c #118845",
"t c #128944",
"y c #128845",
"u c #128945",
"i c #148B47",
"p c #2A9458",
"a c #30975C",
"s c #30985D",
"d c #31985D",
"f c #32985D",
"g c #32985E",
/* pixels */
"                                                                ",
"                                                                ",
"                                                                ",
"                                                                ",
"                                                                ",
"                                                                ",
"                              gqwg                              ",
"                         11111111111111                         ",
"                      11111111111111111111                      ",
"                    111111111111111111111111                    ",
"                  1111111111111111111111111111                  ",
"                 1111111111111111.,111.11111111                 ",
"               t11111111111111111.,111.111111111t               ",
"              4111111111111111111.,111.111111111<4              ",
"             41111111111111111111.,111.1111111111<4             ",
"            i11111111111111111111.,111.111111111144t            ",
"            11111111111111111111............O1111111            ",
"           1111111111111111111>.............111111111           ",
"          1111111111111111111...............1111111111          ",
"          111111111111111111...............+1111111111          ",
"         11111111111111111*................111111111111         ",
"         1111111111111114..................111111111111         ",
"        1111111111111111.....1111.,111.11111111111111111        ",
"        11111111111111:......1111.,111.11111111111111111        ",
"        11111111111111.......1111.,111.11111111111111111        ",
"       111111111111111.......1111.,111.111111111111111111       ",
"       111111111111111.......1111.,111.111111111111111111       ",
"       111111111111111.......1111.,111.111111111111111111       ",
"       111111111111111.......1111.,111.111111111111111111       ",
"       11111111111111=.......11==.%===.=====1111111111111       ",
"      g41111111111111........1.............;1111111111111g      ",
"      t<1111111111111......................11111111111111w      ",
"      t1111111111111.......................11111111111111t      ",
"      s1111111111111......................;<1111111111111p      ",
"       1111111111111......................111111111111111       ",
"       111111111111.......................111111111111111       ",
"       111111111111111.......1111.,111.111111111111111111       ",
"       111111111111111.......1111.,111.111111111111111111       ",
"       111111111111111.......1111.,111.111111111111111111       ",
"        11111111111111.......1111.,111.11111111111111111        ",
"        11111111111111.......1111.,111.11111111111111111        ",
"        11111111111111.......1111.,111.11111111111111111        ",
"         1111111111111.......1111.,111.1111111111111111         ",
"         1111111111111.......1111.,111.1111111111111111         ",
"          111111111111.......1111.,111.111111111111111          ",
"          11111111111=.......1111.,111.111111111111111          ",
"           1111111111........1111$<111$11111111111111           ",
"            111111111.......@11111111111111111111111            ",
"            74111111........111111111111111111111117            ",
"             4111111.......=11111111111111111111114             ",
"              411111......#11111111111111111111114              ",
"               6111......111111111111111111111115               ",
"                 111111111111111111111111111111                 ",
"                  1111111111111111111111111111                  ",
"                    111111111111111111111111                    ",
"                      11111111111111111111                      ",
"                         111114<1111111                         ",
"                               99                               ",
"                                                                ",
"                                                                ",
"                                                                ",
"                                                                ",
"                                                                ",
"                                                                "
};
