/* XPM */
static char *_1dbbc57afd640d9e3f86fd2c37bdfc0KeKsmKVx8urBdrFi[] = {
/* columns rows colors chars-per-pixel */
"16 16 11 1 ",
"  c None",
". c black",
"X c #001007",
"o c #00190A",
"O c #00240F",
"+ c #003818",
"@ c #008037",
"# c #008137",
"$ c #018137",
"% c #008038",
"& c #018038",
/* pixels */
"                ",
"                ",
"     @@@@@@     ",
"   &@@@@.+@@@   ",
"   @@@@o...@@   ",
"  @@@@.O.XO@@@  ",
"  @@@@.@.+@@@@  ",
"  @@@..@...@@@  ",
"  @@@......@@@  ",
"  @@@@.@.+@@@@  ",
"  @@@@.@.+@@@@  ",
"   @@..@.+@@@   ",
"   &@..@@@@@@   ",
"     @@@@@@     ",
"                ",
"                "
};
