/* XPM */
static char *c2ad16dc59d6472bae7dc8a90002d5dbSQxDWkdYCKfk6SWA[] = {
/* columns rows colors chars-per-pixel */
"32 32 21 1 ",
"  c None",
". c black",
"X c #002C13",
"o c #005D28",
"O c #007E36",
"+ c #007F37",
"@ c #008037",
"# c #008137",
"$ c #008038",
"% c #04813A",
"& c #05813A",
"* c #05823A",
"= c #05833B",
"- c #07833C",
"; c #07833D",
": c #07843C",
"> c #07843D",
", c #08843C",
"< c #09843E",
"1 c #0B853F",
"2 c #0B863F",
/* pixels */
"                                ",
"                                ",
"                                ",
"             @@@@@@             ",
"          :@@@@@@@@@@-          ",
"         @@@@@@@o@@.@@@         ",
"       1@@@@@@@@o@@.@@@@1       ",
"      1@@@@@@@@$o@@.@@@@@1      ",
"      @@@@@@@@@O......@@@@      ",
"     @@@@@@@@@........@@@@@     ",
"    :@@@@@@@@........X@@@@@-    ",
"    @@@@@@@O..@@o@@.@@@@@@@@    ",
"    @@@@@@@...@@o@@.@@@@@@@@    ",
"   @@@@@@@@...@@o@@.@@@@@@@@@   ",
"   @@@@@@@@...@@o@@.@@@@@@@@@   ",
"   @@@@@@@....@.......@@@@@@@   ",
"   @@@@@@@...........@@@@@@@@   ",
"   @@@@@@@...........@@@@@@@@   ",
"   @@@@@@@@...@@o@@.@@@@@@@@$   ",
"    @@@@@@@...@@o@@.@@@@@@@@    ",
"    @@@@@@@...@@o@@.@@@@@@@@    ",
"    -@@@@@@...@@o@@.@@@@@@@-    ",
"     @@@@@@...@@o@@.@@@@@@@     ",
"      @@@@....@@@@@@@@@@@@      ",
"      :@@@....@@@@@@@@@@@:      ",
"       1@@...@@@@@@@@@@@-       ",
"         @@@@@@@@@@@@@@         ",
"          -@@@@@@@@@O-          ",
"             $@@@@O             ",
"                                ",
"                                ",
"                                "
};
